HIERARCHY
ROOT Pelvis
{
	OFFSET -0.217368 -24.078917 2.858379
	CHANNELS 6 Xposition Yposition Zposition Zrotation Yrotation Xrotation 
	JOINT Left_hip
	{
		OFFSET 5.858135 -8.228005 -1.766408
		CHANNELS 3 Zrotation Yrotation Xrotation
		JOINT Left_knee
		{
			OFFSET 4.345143 -38.646942 0.803700
			CHANNELS 3 Zrotation Yrotation Xrotation
			JOINT Left_ankle
			{
				OFFSET -1.479033 -42.687447 -3.742800
				CHANNELS 3 Zrotation Yrotation Xrotation
				JOINT Left_foot
				{
					OFFSET 4.105436 -6.028605 12.204244
					CHANNELS 3 Zrotation Yrotation Xrotation
					End Site
					{
						OFFSET 0.000000 0.000000 0.000000
					}
				}
			}
		}
	}
	JOINT Right_hip
	{
		OFFSET -6.030973 -9.051328 -1.354253
		CHANNELS 3 Zrotation Yrotation Xrotation
		JOINT Right_knee
		{
			OFFSET -4.325663 -38.368790 -0.484304
			CHANNELS 3 Zrotation Yrotation Xrotation
			JOINT Right_ankle
			{
				OFFSET 1.905555 -42.004566 -3.456167
				CHANNELS 3 Zrotation Yrotation Xrotation
				JOINT Right_foot
				{
					OFFSET -3.483987 -6.210554 13.032330
					CHANNELS 3 Zrotation Yrotation Xrotation
					End Site
					{
						OFFSET 0.000000 0.000000 0.000000
					}
				}
			}
		}
	}
	JOINT Spine1
	{
		OFFSET 0.443945 12.440353 -3.838522
		CHANNELS 3 Zrotation Yrotation Xrotation
		JOINT Spine2
		{
			OFFSET 0.448844 13.795640 2.682033
			CHANNELS 3 Zrotation Yrotation Xrotation
			JOINT Spine3
			{
				OFFSET -0.226460 5.603239 0.285504
				CHANNELS 3 Zrotation Yrotation Xrotation
				JOINT Neck
				{
					OFFSET -1.339018 21.163553 -3.346758
					CHANNELS 3 Zrotation Yrotation Xrotation
					JOINT Head
					{
						OFFSET 1.011321 8.893734 5.040987
						CHANNELS 3 Zrotation Yrotation Xrotation
						End Site
						{
							OFFSET 0.000000 0.000000 0.000000
						}
					}
				}
				JOINT Left_collar
				{
					OFFSET 7.170247 11.399971 -1.889817
					CHANNELS 3 Zrotation Yrotation Xrotation
					JOINT Left_shoulder
					{
						OFFSET 12.292140 4.520507 -1.904600
						CHANNELS 3 Zrotation Yrotation Xrotation
						JOINT Left_elbow
						{
							OFFSET 25.533188 -1.564902 -2.294648
							CHANNELS 3 Zrotation Yrotation Xrotation
							JOINT Left_wrist
							{
								OFFSET 26.570929 1.269810 -0.737473
								CHANNELS 3 Zrotation Yrotation Xrotation
								JOINT Left_palm
								{
									OFFSET 8.669054 -1.063602 -1.559429
									CHANNELS 3 Zrotation Yrotation Xrotation
									End Site
									{
										OFFSET 0.000000 0.000000 0.000000
									}
								}
							}
						}
					}
				}
				JOINT Right_collar
				{
					OFFSET -8.295364 11.247234 -2.370738
					CHANNELS 3 Zrotation Yrotation Xrotation
					JOINT Right_shoulder
					{
						OFFSET -11.322830 4.685326 -0.847207
						CHANNELS 3 Zrotation Yrotation Xrotation
						JOINT Right_elbow
						{
							OFFSET -26.012751 -1.436928 -3.126872
							CHANNELS 3 Zrotation Yrotation Xrotation
							JOINT Right_wrist
							{
								OFFSET -26.910841 0.679372 -0.602677
								CHANNELS 3 Zrotation Yrotation Xrotation
								JOINT Right_palm
								{
									OFFSET -8.875370 -0.865157 -1.010708
									CHANNELS 3 Zrotation Yrotation Xrotation
									End Site
									{
										OFFSET 0.000000 0.000000 0.000000
									}
								}
							}
						}
					}
				}
			}
		}
	}
}
MOTION
Frames: 8
Frame Time: 0.016667
-134.583160 45.979874 25.913692 1.065204 -11.634663 40.408963 25.649702 11.441059 -75.731992 -6.002216 2.942403 86.919491 0.927811 -7.851302 -16.040935 0.000000 0.000000 0.000000 -18.243209 -5.542677 -83.462860 17.974887 -15.550243 84.404247 -5.645973 -10.521160 -14.988444 0.000000 0.000000 0.000000 2.386563 -3.908902 57.540620 -2.057005 0.953450 5.274729 -2.864845 -2.624755 -3.351868 0.236156 0.187351 -4.624200 0.000000 0.000000 0.000000 4.809245 -43.905575 14.301360 14.604986 -28.667906 -3.764906 9.995209 -10.134893 -0.472049 0.000000 0.000000 0.000000 0.000000 0.000000 0.000000 -5.626431 49.389886 16.168134 -15.571612 31.796208 -5.005065 -7.221783 10.884371 -0.196803 0.000000 0.000000 0.000000 0.000000 0.000000 0.000000 
-136.901184 44.961975 25.569674 3.454447 -8.073641 38.013907 25.537750 11.158115 -74.771423 -5.093036 1.929736 89.199128 -0.110112 -8.154109 -12.605134 0.000000 0.000000 0.000000 -19.956698 -6.462636 -79.105037 18.102910 -16.814920 88.490537 -5.010428 -7.485008 -16.259305 0.000000 0.000000 0.000000 4.494317 -5.119848 57.798587 -0.928933 0.320002 6.654394 -4.581505 -4.864422 -3.842805 -0.277529 0.454167 -3.158672 0.000000 0.000000 0.000000 4.296297 -43.569801 14.359616 13.674483 -30.087120 -3.888065 13.265553 -9.335954 -0.683331 0.000000 0.000000 0.000000 0.000000 0.000000 0.000000 -9.040688 49.014928 14.629409 -15.280113 33.144082 -5.229847 -6.574051 11.398659 -0.163123 0.000000 0.000000 0.000000 0.000000 0.000000 0.000000 
-138.609772 43.118187 25.504250 5.344830 -5.929713 37.243664 25.382065 10.834648 -73.743188 -6.068724 3.343882 93.473132 0.890178 -5.580242 -13.125466 0.000000 0.000000 0.000000 -21.736196 -7.517934 -76.653024 19.606695 -19.572204 91.446190 -4.959393 -4.906887 -20.318321 0.000000 0.000000 0.000000 5.307227 -5.299824 55.328004 0.269193 -0.439826 9.519343 -5.065566 -5.795827 -4.986188 -0.964262 0.930004 -2.601708 0.000000 0.000000 0.000000 4.225647 -44.751818 14.816979 13.037858 -30.030661 -3.767817 15.221627 -9.227786 -0.824301 0.000000 0.000000 0.000000 0.000000 0.000000 0.000000 -11.832772 48.816814 13.439282 -15.324962 32.314073 -5.062720 -6.618639 13.125239 -0.214327 0.000000 0.000000 0.000000 0.000000 0.000000 0.000000 
-139.794312 41.454803 25.604435 6.608129 -4.082365 34.785667 23.894859 9.192888 -70.650715 -5.340684 2.616797 99.703006 2.899220 2.461993 -9.206940 0.000000 0.000000 0.000000 -22.154117 -7.154518 -71.874463 18.792692 -20.232394 96.436917 -4.877778 -1.902124 -23.519884 0.000000 0.000000 0.000000 5.222508 -5.269448 55.464602 0.729977 -0.760214 10.771924 -5.729152 -6.814547 -5.675686 -0.511666 0.482042 -1.085502 0.000000 0.000000 0.000000 5.416020 -46.860862 15.140987 13.366825 -29.645562 -3.751840 13.664869 -9.065081 -0.691494 0.000000 0.000000 0.000000 0.000000 0.000000 0.000000 -11.908215 49.293128 13.550045 -15.851309 33.244042 -5.381191 -7.030061 12.661748 -0.238247 0.000000 0.000000 0.000000 0.000000 0.000000 0.000000 
-140.483444 39.497009 25.770870 8.785098 -2.246280 34.739347 22.400392 8.117762 -70.419968 -8.087089 6.884062 101.233071 4.954380 7.659009 -9.642905 0.000000 0.000000 0.000000 -23.348566 -7.730579 -70.208295 17.385377 -20.092728 101.635563 -4.962699 -1.745944 -24.188931 0.000000 0.000000 0.000000 5.431868 -5.238079 54.185417 1.935138 -1.516850 11.338051 -6.890233 -8.231394 -7.205483 -0.121433 0.306443 -2.741014 0.000000 0.000000 0.000000 5.493966 -47.965813 15.510567 14.107268 -31.179021 -4.177636 10.011507 -8.023222 -0.364303 0.000000 0.000000 0.000000 0.000000 0.000000 0.000000 -10.563950 49.182827 14.063125 -14.320384 34.596656 -5.310629 -7.797957 11.929678 -0.278964 0.000000 0.000000 0.000000 0.000000 0.000000 0.000000 
-140.811752 37.569725 25.999628 10.476167 0.617134 34.398363 22.316485 8.217837 -71.451005 -10.997942 11.292255 101.074148 7.062821 12.610073 -11.879454 0.000000 0.000000 0.000000 -24.566826 -8.520359 -70.019665 16.963472 -21.497956 106.985044 -5.099129 -4.580166 -21.752881 0.000000 0.000000 0.000000 6.293857 -5.627868 53.667763 3.509352 -2.456485 11.067257 -8.656118 -10.111518 -8.541396 0.114543 0.254570 -4.350806 0.000000 0.000000 0.000000 3.980377 -49.313417 16.630807 15.716581 -31.472450 -4.537072 8.346974 -8.258188 -0.264011 0.000000 0.000000 0.000000 0.000000 0.000000 0.000000 -7.878000 46.771647 14.342188 -9.590360 38.586447 -4.817885 -10.800781 9.623186 -0.379151 0.000000 0.000000 0.000000 0.000000 0.000000 0.000000 
-140.750305 35.960495 26.139891 11.463534 2.202424 33.147046 21.594833 7.811792 -72.157321 -12.755815 14.084497 101.572783 7.736543 13.972933 -14.377008 0.000000 0.000000 0.000000 -24.892097 -8.603055 -69.214426 14.230088 -18.831464 112.358713 -4.728971 -3.677323 -20.473250 0.000000 0.000000 0.000000 6.374065 -5.637700 53.406428 4.018997 -2.783167 11.286352 -9.506224 -11.764336 -9.151609 -0.532138 0.754611 -4.770976 0.000000 0.000000 0.000000 3.708831 -49.763648 16.919381 15.282913 -33.273200 -4.835923 6.682812 -7.936579 -0.144551 0.000000 0.000000 0.000000 0.000000 0.000000 0.000000 -4.952268 45.424396 14.973718 -8.589922 40.770701 -4.873609 -9.667024 8.773273 -0.261978 0.000000 0.000000 0.000000 0.000000 0.000000 0.000000 
-140.451111 33.869530 26.182058 10.767103 5.974406 31.158195 22.044337 8.087869 -71.860980 -14.026483 17.022047 104.824798 8.257030 14.953584 -17.572005 0.000000 0.000000 0.000000 -24.447376 -7.881282 -66.545651 13.680863 -19.098910 115.737547 -4.913265 -5.284916 -19.421585 0.000000 0.000000 0.000000 7.088333 -6.090928 54.052123 4.637558 -3.152405 11.195459 -8.718051 -10.914547 -8.846989 -1.529510 1.494827 -5.130040 0.000000 0.000000 0.000000 3.024395 -50.098461 17.342310 17.746085 -35.938593 -5.985944 4.767501 -7.243119 -0.016992 0.000000 0.000000 0.000000 0.000000 0.000000 0.000000 -3.814362 43.889636 14.820237 -6.254423 41.859734 -4.313474 -9.511116 8.027348 -0.213923 0.000000 0.000000 0.000000 0.000000 0.000000 0.000000 
